<svg width="41" height="40" viewBox="0 0 41 40" fill="none" xmlns="http://www.w3.org/2000/svg">
<path d="M8.83317 25C7.13317 25 5.5665 25.65 4.38317 26.7167C4.1165 26.95 3.8665 27.2 3.64984 27.4833C2.7165 28.6333 2.1665 30.0833 2.1665 31.6667C2.1665 35.35 5.1665 38.3333 8.83317 38.3333C10.4332 38.3333 11.8832 37.7667 13.0332 36.85C13.9665 36.0667 14.6998 35.05 15.0998 33.8833C15.3665 33.2 15.4998 32.45 15.4998 31.6667C15.4998 28 12.5165 25 8.83317 25ZM12.8332 30.3833C12.8332 30.85 12.4665 31.2 12.0165 31.2C11.5665 31.2 11.1998 30.85 11.1998 30.3833V30.2167C11.1998 30.0333 11.0665 29.8833 10.8832 29.8833H7.54984C7.7165 30.2 7.68317 30.5833 7.4165 30.85C7.2665 31 7.0665 31.0833 6.83317 31.0833C6.63317 31.0833 6.4165 31 6.2665 30.85L5.0665 29.65C4.99984 29.5833 4.93317 29.4833 4.88317 29.3833C4.8165 29.1833 4.8165 28.9667 4.88317 28.7667C4.93317 28.6833 4.98317 28.5667 5.0665 28.5L6.2665 27.3167C6.58317 26.9833 7.09984 26.9833 7.39984 27.3167C7.6665 27.5667 7.69984 27.9667 7.53317 28.2667H10.8832C11.9498 28.2667 12.8165 29.1333 12.8165 30.2167V30.3833H12.8332ZM10.8332 36.2667C10.6165 36.2667 10.3998 36.2 10.2498 36.0333C9.98317 35.7833 9.94984 35.3833 10.1165 35.0833H6.7665C5.69984 35.0833 4.83317 34.2167 4.83317 33.1333V32.9667C4.83317 32.5 5.19984 32.15 5.64984 32.15C6.09984 32.15 6.4665 32.5 6.4665 32.9667V33.1333C6.4665 33.3167 6.59984 33.4667 6.78317 33.4667H10.1332C9.9665 33.15 9.99984 32.7667 10.2665 32.5C10.5832 32.1833 11.0998 32.1833 11.3998 32.5L12.5998 33.7C12.6665 33.7667 12.7332 33.8667 12.7832 33.9667C12.8498 34.1667 12.8498 34.3833 12.7832 34.5833C12.7332 34.6667 12.6665 34.7667 12.5998 34.8333L11.3998 36.0167C11.2498 36.1833 11.0332 36.2667 10.8332 36.2667Z" fill="white"/>
<path d="M25.2498 6.58317V12.9165H22.7498V6.58317C22.7498 6.13317 22.3498 5.9165 22.0832 5.9165C21.9998 5.9165 21.9165 5.93317 21.8332 5.9665L8.6165 10.9498C7.73317 11.2832 7.1665 12.1165 7.1665 13.0665V14.1832C5.64984 15.3165 4.6665 17.1332 4.6665 19.1832V13.0665C4.6665 11.0832 5.88317 9.3165 7.73317 8.6165L20.9665 3.6165C21.3332 3.48317 21.7165 3.4165 22.0832 3.4165C23.7498 3.4165 25.2498 4.7665 25.2498 6.58317Z" fill="white"/>
<path d="M36.3333 24.1668V25.8335C36.3333 26.2835 35.9833 26.6502 35.5166 26.6668H33.0833C32.2 26.6668 31.4 26.0168 31.3333 25.1502C31.2833 24.6335 31.4833 24.1502 31.8166 23.8168C32.1166 23.5002 32.5333 23.3335 32.9833 23.3335H35.5C35.9833 23.3502 36.3333 23.7168 36.3333 24.1668Z" fill="white"/>
<path d="M32.9665 21.5832H34.6665C35.5832 21.5832 36.3332 20.8332 36.3332 19.9165V19.1832C36.3332 15.7332 33.5165 12.9165 30.0665 12.9165H10.9332C9.5165 12.9165 8.2165 13.3832 7.1665 14.1832C5.64984 15.3165 4.6665 17.1332 4.6665 19.1832V22.1498C4.6665 22.7832 5.33317 23.1832 5.93317 22.9832C6.8665 22.6665 7.84984 22.4998 8.83317 22.4998C13.8832 22.4998 17.9998 26.6165 17.9998 31.6665C17.9998 32.8665 17.6832 34.1832 17.1832 35.3498C16.9165 35.9498 17.3332 36.6665 17.9832 36.6665H30.0665C33.5165 36.6665 36.3332 33.8498 36.3332 30.3998V30.0832C36.3332 29.1665 35.5832 28.4165 34.6665 28.4165H33.2165C31.6165 28.4165 30.0832 27.4332 29.6665 25.8832C29.3332 24.6165 29.7332 23.3832 30.5665 22.5832C31.1832 21.9498 32.0332 21.5832 32.9665 21.5832ZM23.8332 21.2498H15.4998C14.8165 21.2498 14.2498 20.6832 14.2498 19.9998C14.2498 19.3165 14.8165 18.7498 15.4998 18.7498H23.8332C24.5165 18.7498 25.0832 19.3165 25.0832 19.9998C25.0832 20.6832 24.5165 21.2498 23.8332 21.2498Z" fill="white"/>
</svg>
