<svg width="41" height="40" viewBox="0 0 41 40" fill="none" xmlns="http://www.w3.org/2000/svg">
<path d="M31.3998 6.95023L22.2332 3.51689C21.2832 3.16689 19.7332 3.16689 18.7832 3.51689L9.6165 6.95023C7.84984 7.61689 6.4165 9.68356 6.4165 11.5669V25.0669C6.4165 26.4169 7.29984 28.2002 8.38317 29.0002L17.5498 35.8502C19.1665 37.0669 21.8165 37.0669 23.4332 35.8502L32.5998 29.0002C33.6832 28.1836 34.5665 26.4169 34.5665 25.0669V11.5669C34.5832 9.68356 33.1498 7.61689 31.3998 6.95023ZM21.7498 21.4502V25.8336C21.7498 26.5169 21.1832 27.0836 20.4998 27.0836C19.8165 27.0836 19.2498 26.5169 19.2498 25.8336V21.4502C17.5665 20.9169 16.3332 19.3502 16.3332 17.5002C16.3332 15.2002 18.1998 13.3336 20.4998 13.3336C22.7998 13.3336 24.6665 15.2002 24.6665 17.5002C24.6665 19.3669 23.4332 20.9169 21.7498 21.4502Z" fill="white"/>
</svg>
