<svg width="21" height="20" viewBox="0 0 21 20" fill="none" xmlns="http://www.w3.org/2000/svg">
<path d="M10.0047 1.66602C5.41305 1.66602 1.67139 5.40768 1.67139 9.99935C1.67139 14.591 5.41305 18.3327 10.0047 18.3327C14.5964 18.3327 18.3381 14.591 18.3381 9.99935C18.3381 5.40768 14.5964 1.66602 10.0047 1.66602ZM13.9881 8.08268L9.26305 12.8077C9.14639 12.9243 8.98805 12.991 8.82139 12.991C8.65472 12.991 8.49639 12.9243 8.37972 12.8077L6.02139 10.4493C5.77972 10.2077 5.77972 9.80768 6.02139 9.56602C6.26305 9.32435 6.66305 9.32435 6.90472 9.56602L8.82139 11.4827L13.1047 7.19935C13.3464 6.95768 13.7464 6.95768 13.9881 7.19935C14.2297 7.44102 14.2297 7.83268 13.9881 8.08268Z" fill="#4368C7"/>
</svg>
